<?xml version="1.0" standalone="no"?><!DOCTYPE svg PUBLIC "-//W3C//DTD SVG 1.1//EN" "http://www.w3.org/Graphics/SVG/1.1/DTD/svg11.dtd"><svg t="1732175229024" class="icon" viewBox="0 0 1024 1024" version="1.1" xmlns="http://www.w3.org/2000/svg" p-id="4277" xmlns:xlink="http://www.w3.org/1999/xlink" width="200" height="200"><path d="M918.4 212.8H105.6C47.2 212.8 0 260 0 318.4v387.4c0 58.4 47.2 105.6 105.6 105.6h812.8c58.4 0 105.6-47.2 105.6-105.6V318.4c0-58.4-47.2-105.6-105.6-105.6z" fill="#FFD782" p-id="4278"></path><path d="M105.6 735.8c-16.6 0-30-13.4-30-30V318.4c0-16.6 13.4-30 30-30h812.8c16.6 0 30 13.4 30 30v387.4c0 16.6-13.4 30-30 30H105.6z" fill="#FFFFFF" p-id="4279"></path><path d="M918.4 288.2H105.6c-16.6 0-30 13.4-30 30V396h872.8v-77.8c0-16.4-13.4-30-30-30zM75.6 627.8v77.8c0 16.6 13.4 30 30 30h812.8c16.6 0 30-13.4 30-30v-77.8H75.6z" fill="#249ED9" p-id="4280"></path><path d="M217.4 598.4H191l-4.6-30.2h-32L150 598.4H126l26.6-166.2h38.2l26.6 166.2z m-59.6-52.8h25.2l-12.6-84-12.6 84zM316.6 470.4v6c0 17.2-5.2 28-16.8 33.4 14 5.4 19.4 18 19.4 35.6v13.6c0 25.6-13.6 39.4-39.6 39.4h-41v-166.2H278c27 0 38.6 12.6 38.6 38.2z m-52-14.4v44h10.2c9.8 0 15.6-4.2 15.6-17.6v-9.2c0-11.8-4-17.2-13.2-17.2h-12.6z m0 67.6v51h15c8.8 0 13.6-4 13.6-16.4v-14.4c0-15.4-5-20.2-16.8-20.2h-11.8zM419.8 536.4v22c0 26.6-13.2 41.8-39 41.8s-39-15.2-39-41.8V472c0-26.6 13.2-41.8 39-41.8s39 15.2 39 41.8v16.2h-24.6v-17.8c0-11.8-5.2-16.4-13.6-16.4s-13.6 4.6-13.6 16.4v89.8c0 11.8 5.2 16.2 13.6 16.2s13.6-4.2 13.6-16.2v-23.8h24.6zM489.4 503.4h47.4v23.8h-47.4v-23.8zM625.6 453c20.2 0 24.6-9.8 28.8-20.8h17.6v166.2h-26.2v-126.8h-20.2v-18.6zM750.8 454c-8.4 0-13.6 4.6-13.6 16.4v17.8h-24.6V472c0-26.6 13.2-41.8 39-41.8s39 15.2 39 41.8c0 52.2-52 71.8-52 99 0 1.2 0 2.4 0.2 3.6H788v23.8h-75.6V578c0-49 51.8-57 51.8-105 0.2-15-5.2-19-13.4-19zM866 473c0-15-5.2-19-13.6-19s-13.6 4.6-13.6 16.4v10.6h-24.6V472c0-26.6 13.2-41.8 39-41.8S892 445.4 892 472v4.2c0 17.8-5.8 29-18.2 34.2 13 5.6 18.2 18 18.2 35v13c0 26.6-13.2 41.8-39 41.8s-39-15.2-39-41.8v-13.8h24.6v15.4c0 11.8 5.2 16.4 13.6 16.4s13.6-4 13.6-18.8v-13c0-15.4-5.2-21.2-17-21.2H840v-23.8h10.2c9.8 0 15.6-4.2 15.6-17.6l0.2-9z" fill="#464655" p-id="4281"></path><path d="M249.8 342.6m-17.8 0a17.8 17.8 0 1 0 35.6 0 17.8 17.8 0 1 0-35.6 0Z" fill="#464655" p-id="4282"></path><path d="M249.8 681.8m-17.8 0a17.8 17.8 0 1 0 35.6 0 17.8 17.8 0 1 0-35.6 0Z" fill="#464655" p-id="4283"></path><path d="M774.2 342.6m-17.8 0a17.8 17.8 0 1 0 35.6 0 17.8 17.8 0 1 0-35.6 0Z" fill="#464655" p-id="4284"></path><path d="M774.2 681.8m-17.8 0a17.8 17.8 0 1 0 35.6 0 17.8 17.8 0 1 0-35.6 0Z" fill="#464655" p-id="4285"></path><path d="M170.6 705.6V318.4c0-58.4 47.2-105.6 105.6-105.6H105.6C47.2 212.8 0 260 0 318.4v387.4c0 58.4 47.2 105.6 105.6 105.6h170.6c-58.4-0.2-105.6-47.4-105.6-105.8z" opacity=".1" p-id="4286"></path></svg>